<?xml version="1.0" encoding="utf-8"?>
<!-- Generator: Adobe Illustrator 26.3.1, SVG Export Plug-In . SVG Version: 6.00 Build 0)  -->
<svg version="1.1" xmlns="http://www.w3.org/2000/svg" xmlns:xlink="http://www.w3.org/1999/xlink" x="0px" y="0px"
	 viewBox="0 0 24 24" style="enable-background:new 0 0 24 24;" xml:space="preserve">
<style type="text/css">
	.st0{fill:none;stroke:#242E3C;stroke-width:2;stroke-linecap:round;stroke-linejoin:round;}
	
		.st1{fill:none;stroke:#242E3C;stroke-width:2;stroke-linecap:round;stroke-linejoin:round;stroke-dasharray:3.8753,3.8753,3.8753,3.8753;}
</style>
<g id="Capa_1">
</g>
<g id="Capa_2">
	<path class="st0" d="M8.8,14.6l-4.3-2.1c-0.4-0.2-0.5-0.6-0.3-0.9c0.1-0.1,0.2-0.2,0.3-0.3L11.2,8c0.5-0.2,1.1-0.2,1.6,0l6.7,3.3
		c0.4,0.2,0.5,0.6,0.3,0.9c-0.1,0.1-0.2,0.2-0.3,0.3l-4.6,2.2"/>
	<g>
		<g>
			<path class="st0" d="M6.2,7L4.5,6.1c0,0,0,0-0.1,0"/>
			<path class="st1" d="M6.7,3.9l4.5-2.2c0.5-0.2,1.1-0.2,1.6,0l6.2,3"/>
			<path class="st0" d="M19.5,6.1C19.5,6.1,19.5,6.1,19.5,6.1L17.8,7"/>
		</g>
	</g>
	<path class="st0" d="M7.9,18.4l4.1,4.1l4.1-4.1"/>
	<path class="st0" d="M12,22.5v-9.8"/>
</g>
</svg>
