<?xml version="1.0" encoding="utf-8"?>
<!-- Generator: Adobe Illustrator 26.3.1, SVG Export Plug-In . SVG Version: 6.00 Build 0)  -->
<svg version="1.1" id="Capa_1" xmlns="http://www.w3.org/2000/svg" xmlns:xlink="http://www.w3.org/1999/xlink" x="0px" y="0px"
	 viewBox="0 0 24 24" style="enable-background:new 0 0 24 24;" xml:space="preserve">
<style type="text/css">
	.st0{fill:none;stroke:#242E3C;stroke-width:2;stroke-linecap:round;stroke-linejoin:round;}
	
		.st1{fill:none;stroke:#242E3C;stroke-width:2;stroke-linecap:round;stroke-linejoin:round;stroke-dasharray:3.8753,3.8753,3.8753,3.8753;}
</style>
<path class="st0" d="M15.2,9.4l4.3,2.1c0.4,0.2,0.5,0.6,0.3,0.9c-0.1,0.1-0.2,0.2-0.3,0.3L12.8,16c-0.5,0.2-1.1,0.2-1.6,0l-6.7-3.3
	c-0.4-0.2-0.5-0.6-0.3-0.9c0.1-0.1,0.2-0.2,0.3-0.3l4.6-2.2"/>
<g>
	<g>
		<path class="st0" d="M17.8,17l1.7,0.8c0,0,0,0,0.1,0"/>
		<path class="st1" d="M17.3,20.1l-4.5,2.2c-0.5,0.2-1.1,0.2-1.6,0l-6.2-3"/>
		<path class="st0" d="M4.5,17.9C4.5,17.9,4.5,17.9,4.5,17.9L6.2,17"/>
	</g>
</g>
<path class="st0" d="M16.1,5.6L12,1.5L7.9,5.6"/>
<path class="st0" d="M12,1.5v9.8"/>
</svg>
