<?xml version="1.0" encoding="utf-8"?>
<!-- Generator: Adobe Illustrator 26.3.1, SVG Export Plug-In . SVG Version: 6.00 Build 0)  -->
<svg version="1.1" id="Capa_1" xmlns="http://www.w3.org/2000/svg" xmlns:xlink="http://www.w3.org/1999/xlink" x="0px" y="0px"
	 viewBox="0 0 24 24" style="enable-background:new 0 0 24 24;" xml:space="preserve">
<style type="text/css">
	.st0{fill:none;stroke:#242E3C;stroke-width:2;stroke-linecap:round;stroke-linejoin:round;}
</style>
<path class="st0" d="M13.1,13.8c-0.6,0.3-1.3,0.3-1.9,0l-8-4.6C2.8,9,2.6,8.4,2.9,7.9C3,7.8,3.1,7.7,3.2,7.6l8-4.6
	c0.6-0.3,1.3-0.3,1.9,0l8,4.6c0.4,0.3,0.6,0.8,0.4,1.3C21.3,9,21.2,9.1,21,9.2L13.1,13.8z"/>
<path class="st0" d="M19.6,13.3l1.4,0.8c0.4,0.3,0.6,0.8,0.4,1.3c-0.1,0.1-0.2,0.3-0.4,0.4l-8,4.6c-0.6,0.3-1.3,0.3-1.9,0l-8-4.6
	c-0.4-0.3-0.6-0.8-0.4-1.3c0.1-0.1,0.2-0.3,0.4-0.4l1.4-0.8"/>
</svg>
